HIERARCHY
ROOT Hips
{
	OFFSET 0.00000 0.00000 0.00000
	CHANNELS 6 Xposition Yposition Zposition Zrotation Yrotation Xrotation 
	JOINT LHipJoint
	{
		OFFSET 0 0 0
		CHANNELS 3 Zrotation Yrotation Xrotation
		JOINT LeftHip
		{
			OFFSET 1.48831 -1.59570 0.95625
			CHANNELS 3 Zrotation Yrotation Xrotation
			JOINT LeftKnee
			{
				OFFSET 2.20856 -6.06797 0.00000
				CHANNELS 3 Zrotation Yrotation Xrotation
				JOINT LeftAnkle
				{
					OFFSET 2.62924 -7.22379 0.00000
					CHANNELS 3 Zrotation Yrotation Xrotation
					JOINT LeftToe
					{
						OFFSET 0.16802 -0.46163 2.41673
						CHANNELS 3 Zrotation Yrotation Xrotation
						End Site
						{
							OFFSET 0.00000 -0.00000 1.23760
						}
					}
				}
			}
		}
	}
	JOINT RHipJoint
	{
		OFFSET 0 0 0
		CHANNELS 3 Zrotation Yrotation Xrotation
		JOINT RightHip
		{
			OFFSET -1.56796 -1.59570 0.95625
			CHANNELS 3 Zrotation Yrotation Xrotation
			JOINT RightKnee
			{
				OFFSET -2.29239 -6.29829 0.00000
				CHANNELS 3 Zrotation Yrotation Xrotation
				JOINT RightAnkle
				{
					OFFSET -2.66963 -7.33475 0.00000
					CHANNELS 3 Zrotation Yrotation Xrotation
					JOINT RightToe
					{
						OFFSET -0.18185 -0.49964 2.34359
						CHANNELS 3 Zrotation Yrotation Xrotation
						End Site
						{
							OFFSET -0.00000 -0.00000 1.20477
						}
					}
				}
			}
		}
	}
	JOINT lowerback
	{
		OFFSET 0 0 0
		CHANNELS 3 Zrotation Yrotation Xrotation
		JOINT Chest
		{
			OFFSET 0.03505 2.15832 -0.34324
			CHANNELS 3 Zrotation Yrotation Xrotation
			JOINT Chest2
			{
				OFFSET -0.01089 2.17963 0.04689
				CHANNELS 3 Zrotation Yrotation Xrotation
				JOINT lowerneck
				{
					OFFSET 0 0 0
					CHANNELS 3 Zrotation Yrotation Xrotation
					JOINT Neck
					{
						OFFSET 0.04686 1.69404 0.22159
						CHANNELS 3 Zrotation Yrotation Xrotation
						JOINT Head
						{
							OFFSET 0.00265 1.69305 -0.01513
							CHANNELS 3 Zrotation Yrotation Xrotation
							End Site
							{
								OFFSET -0.00415 1.80215 -0.03034
							}
						}
					}
				}
				JOINT LeftCollar
				{
					OFFSET 0 0 0
					CHANNELS 3 Zrotation Yrotation Xrotation
					JOINT LeftShoulder
					{
						OFFSET 3.67184 1.11724 -0.19002
CHANNELS 3 Zrotation Xrotation Yrotation
						JOINT LeftElbow
						{
OFFSET 0 -5.177140 -0.000000
CHANNELS 3 Zrotation Xrotation Yrotation
							JOINT LeftWrist
							{
OFFSET 0 -3.436790 -0.000000
CHANNELS 3 Zrotation Xrotation Yrotation
								JOINT lhand
								{
									OFFSET 0 0 0
CHANNELS 3 Zrotation Xrotation Yrotation
									JOINT LFingers
									{
OFFSET 0 -0.573120 -0.000000
CHANNELS 3 Zrotation Xrotation Yrotation
										End Site
										{
OFFSET 0 -0.462060 -0.000000
										}
									}
								}
								JOINT LThumb
								{
OFFSET 0 0.000000 0.000000
CHANNELS 3 Zrotation Xrotation Yrotation
									End Site
									{
OFFSET 0 -0.469120 0.469120
									}
								}
							}
						}
					}
				}
				JOINT RightCollar
				{
					OFFSET 0 0 0
					CHANNELS 3 Zrotation Yrotation Xrotation
					JOINT RightShoulder
					{
						OFFSET -3.59596 0.95831 -0.26050
CHANNELS 3 Zrotation Xrotation Yrotation
						JOINT RightElbow
						{
OFFSET 0 -5.239080 -0.000000
CHANNELS 3 Zrotation Xrotation Yrotation
							JOINT RightWrist
							{
OFFSET 0 -3.464850 -0.000000
CHANNELS 3 Zrotation Xrotation Yrotation
								JOINT rhand
								{
									OFFSET 0 0 0
CHANNELS 3 Zrotation Xrotation Yrotation
									JOINT RFingers
									{
OFFSET 0 -0.608750 -0.000000
CHANNELS 3 Zrotation Xrotation Yrotation
										End Site
										{
OFFSET 0 -0.490790 -0.000000
										}
									}
								}
								JOINT RThumb
								{
OFFSET 0 0.000000 0.000000
CHANNELS 3 Zrotation Xrotation Yrotation
									End Site
									{
OFFSET 0 -0.498290 0.498290
									}
								}
							}
						}
					}
				}
			}
		}
	}
}
MOTION
Frames: 11
Frame Time: 0.008333333333333333
4.894492 13.833088 -24.963117 -175.034078 -64.252649 185.908905 0.000000 0.000000 0.000000 -6.015803 4.713723 -61.609519 15.216211 19.442241 75.887088 1.708671 -5.375342 -23.570556 0.346603 -3.782788 -10.466362 0.000000 0.000000 0.000000 15.246985 10.637545 -60.715611 -16.947906 -19.775163 81.044058 -2.505225 0.428021 -29.871052 -0.109505 2.133580 -5.874975 0.686833 -0.047111 34.662553 -0.513217 -1.543906 10.453103 -0.287622 -1.391076 -6.053504 7.986459 0.746080 -4.287342 8.891394 -7.239187 36.583665 1.018264 -2.009049 13.384973 0.000000 0.000000 0.000000 6.562554 2.408975 -30.908159 139.375712 -48.435461 101.094973 -6.875424 -10.432359 -31.808889 0.000000 0.000000 0.000000 -7.125000 0.000000 0.000000 -41.704616 56.625568 13.497362 0.000000 0.000000 0.000000 -1.663075 -2.520233 43.192563 -159.998192 -30.644503 -114.467746 47.274234 -34.350088 21.782611 0.000000 0.000000 0.000000 7.125000 0.000000 0.000000 58.951874 41.664951 8.568783
4.928226 13.800369 -24.934393 -174.489042 -64.422641 185.628693 0.000000 0.000000 0.000000 -5.728234 4.433110 -62.339635 15.380622 19.480550 76.380597 1.704481 -5.325669 -23.545747 0.339908 -3.746396 -10.364318 0.000000 0.000000 0.000000 15.291032 10.713523 -61.320485 -17.035812 -19.788017 81.303885 -2.488747 0.306957 -29.807638 -0.114251 2.179228 -6.001277 0.568847 0.024721 34.709743 -0.542216 -1.521968 10.608123 -0.265371 -1.390902 -5.900692 7.930401 0.812837 -4.215368 8.791841 -7.099112 36.674688 1.008612 -1.962075 13.400512 0.000000 0.000000 0.000000 6.555656 2.229663 -30.822255 139.454478 -48.389753 101.153932 -6.715834 -10.310574 -31.740287 0.000000 0.000000 0.000000 -7.125000 0.000000 0.000000 -41.494611 56.606231 13.390889 0.000000 0.000000 0.000000 -1.701550 -2.703304 43.307953 -159.939065 -30.715683 -114.437578 45.580202 -33.714192 22.320067 0.000000 0.000000 0.000000 7.125000 0.000000 0.000000 59.194215 42.539179 6.231521
4.959172 13.768870 -24.910316 -173.818861 -64.641441 185.206705 0.000000 0.000000 0.000000 -5.367068 4.158776 -63.014920 15.536232 19.515394 76.846836 1.697893 -5.311166 -23.499912 0.333454 -3.711267 -10.265767 0.000000 0.000000 0.000000 15.433602 10.711304 -61.860106 -17.116577 -19.799451 81.542368 -2.477810 0.219816 -29.767965 -0.115502 2.191402 -6.035019 0.476680 0.060909 34.773754 -0.534457 -1.519205 10.685512 -0.209862 -1.395487 -5.837939 7.865330 0.896657 -4.106360 8.682279 -6.928054 36.766962 1.000246 -1.907159 13.407398 0.000000 0.000000 0.000000 6.528105 2.135199 -30.756563 139.485734 -48.371663 101.177276 -6.613455 -10.231804 -31.689444 0.000000 0.000000 0.000000 -7.125000 0.000000 0.000000 -41.353494 56.588386 13.314599 0.000000 0.000000 0.000000 -1.762361 -2.853664 43.524285 -159.766522 -30.922613 -114.349128 43.867128 -32.595306 22.630503 0.000000 0.000000 0.000000 7.125000 0.000000 0.000000 59.058579 43.174844 4.512779
4.982333 13.748679 -24.894520 -173.213990 -64.914960 184.759860 0.000000 0.000000 0.000000 -5.049426 3.868401 -63.458331 15.637104 19.537399 77.148528 1.690069 -5.309349 -23.443849 0.328095 -3.681444 -10.182135 0.000000 0.000000 0.000000 15.610909 10.599760 -62.202899 -17.164805 -19.806212 81.684637 -2.473629 0.135289 -29.769062 -0.118178 2.216394 -6.104034 0.371268 0.090817 34.704874 -0.530209 -1.526360 10.788917 -0.150772 -1.404431 -5.699553 7.821145 0.960896 -3.994951 8.615494 -6.788796 36.801136 1.000293 -1.861676 13.390811 0.000000 0.000000 0.000000 6.490722 2.002031 -30.726471 139.441280 -48.397468 101.144008 -6.678460 -10.255652 -31.766665 0.000000 0.000000 0.000000 -7.125000 0.000000 0.000000 -41.485550 56.634233 13.416879 0.000000 0.000000 0.000000 -1.763823 -2.986343 43.656559 -159.638503 -31.075438 -114.283184 42.233964 -31.615090 22.971972 0.000000 0.000000 0.000000 7.125000 0.000000 0.000000 58.860324 43.783028 2.936051
4.998326 13.740485 -24.885013 -172.718723 -65.134435 184.290851 0.000000 0.000000 0.000000 -4.797097 3.651652 -63.616614 15.679316 19.546424 77.274849 1.681332 -5.297342 -23.382130 0.325085 -3.664423 -10.134482 0.000000 0.000000 0.000000 15.807079 10.486133 -62.285009 -17.170543 -19.806966 81.701545 -2.471547 0.055624 -29.781342 -0.116595 2.201366 -6.062508 0.190918 0.139365 34.647830 -0.556974 -1.532318 10.851866 -0.083888 -1.411310 -5.609296 7.793500 1.005757 -3.890504 8.531885 -6.690143 36.870372 0.985806 -1.834132 13.392123 0.000000 0.000000 0.000000 6.452934 1.937596 -30.684176 139.388882 -48.427826 101.104835 -6.669138 -10.110834 -31.703090 0.000000 0.000000 0.000000 -7.125000 0.000000 0.000000 -41.417036 56.587248 13.339274 0.000000 0.000000 0.000000 -1.781897 -3.036386 43.705248 -159.574335 -31.151794 -114.250113 40.650964 -30.737818 23.292423 0.000000 0.000000 0.000000 7.125000 0.000000 0.000000 58.559946 44.338546 1.554327
5.006470 13.742924 -24.879015 -172.222436 -65.346175 183.672432 0.000000 0.000000 0.000000 -4.562182 3.453741 -63.469127 15.674744 19.545379 77.260984 1.676013 -5.257680 -23.347642 0.325285 -3.665594 -10.137762 0.000000 0.000000 0.000000 16.056153 10.303303 -62.077213 -17.131290 -19.801508 81.585907 -2.469568 -0.011369 -29.790016 -0.116166 2.197493 -6.051649 0.030952 0.179000 34.595084 -0.602816 -1.541160 10.894579 -0.046149 -1.418196 -5.543242 7.807583 1.047613 -3.835775 8.421807 -6.606505 36.968829 0.951221 -1.808602 13.416711 0.000000 0.000000 0.000000 6.417172 1.894979 -30.647874 139.375313 -48.435702 101.094664 -6.795839 -10.183093 -31.814866 0.000000 0.000000 0.000000 -7.125000 0.000000 0.000000 -41.637898 56.646770 13.492614 0.000000 0.000000 0.000000 -1.791930 -3.100888 43.607518 -159.576700 -31.149029 -114.251309 39.117147 -30.022214 23.623824 0.000000 0.000000 0.000000 7.125000 0.000000 0.000000 58.205438 44.874040 0.288362
5.007883 13.754139 -24.878817 -171.514750 -65.572935 182.734467 0.000000 0.000000 0.000000 -4.236101 3.276648 -63.086260 15.634735 19.536865 77.141362 1.672166 -5.209290 -23.325227 0.328721 -3.684911 -10.191854 0.000000 0.000000 0.000000 16.447628 10.126340 -61.585442 -17.047471 -19.789677 81.338265 -2.473897 -0.083965 -29.839599 -0.114825 2.185135 -6.017655 -0.057695 0.176394 34.570460 -0.637998 -1.570626 10.884785 -0.026199 -1.431144 -5.545017 7.745182 1.081505 -3.772334 8.389513 -6.528441 36.996144 0.958749 -1.791955 13.411293 0.000000 0.000000 0.000000 6.416538 1.915599 -30.595694 139.377059 -48.434681 101.095987 -6.927502 -10.289276 -31.979528 0.000000 0.000000 0.000000 -7.125000 0.000000 0.000000 -41.914461 56.745513 13.711870 0.000000 0.000000 0.000000 -1.793649 -3.144355 43.414636 -159.578234 -31.147134 -114.252073 37.826907 -29.484650 23.994078 0.000000 0.000000 0.000000 7.125000 0.000000 0.000000 57.932959 45.380460 -0.851521
5.002672 13.773801 -24.881638 -170.860412 -65.732689 181.777462 0.000000 0.000000 0.000000 -3.966520 3.203976 -62.530358 15.558395 19.520288 76.913225 1.668545 -5.190295 -23.301357 0.331359 -3.699569 -10.233048 0.000000 0.000000 0.000000 16.850193 9.958615 -60.917230 -16.931347 -19.772730 80.995163 -2.480614 -0.150661 -29.901679 -0.112817 2.165931 -5.964557 -0.176308 0.173426 34.473035 -0.705970 -1.609711 10.868925 -0.022676 -1.447441 -5.527841 7.724423 1.114725 -3.786297 8.306228 -6.419470 36.958274 0.940377 -1.760378 13.388049 0.000000 0.000000 0.000000 6.415927 1.931129 -30.473061 139.424538 -48.407143 101.131558 -7.035437 -10.333870 -32.037997 0.000000 0.000000 0.000000 -7.125000 0.000000 0.000000 -42.068633 56.767529 13.799619 0.000000 0.000000 0.000000 -1.758058 -3.237117 43.267301 -159.534851 -31.198697 -114.229655 36.842509 -29.185824 24.601333 0.000000 0.000000 0.000000 7.125000 0.000000 0.000000 57.987010 45.995729 -2.203786
4.992339 13.800819 -24.890147 -170.215367 -65.810995 180.768386 0.000000 0.000000 0.000000 -3.721491 3.301610 -61.831127 15.443333 19.494727 76.568560 1.663196 -5.250253 -23.255280 0.331975 -3.702736 -10.241788 0.000000 0.000000 0.000000 17.307613 9.806282 -60.087454 -16.776568 -19.749017 80.537360 -2.483461 -0.266055 -29.956277 -0.113168 2.168865 -5.972613 -0.345412 0.219888 34.334448 -0.781850 -1.595435 10.805078 -0.018839 -1.435460 -5.547056 7.749076 1.112660 -3.765048 8.246580 -6.343972 36.815189 0.918271 -1.740178 13.311157 0.000000 0.000000 0.000000 6.423798 1.952601 -30.305313 139.477923 -48.376160 101.171444 -7.066388 -10.448836 -32.058449 0.000000 0.000000 0.000000 -7.125000 0.000000 0.000000 -42.116312 56.776589 13.829170 0.000000 0.000000 0.000000 -1.659892 -3.275036 43.141143 -159.542350 -31.189757 -114.233525 34.909099 -28.292489 24.521307 0.000000 0.000000 0.000000 7.125000 0.000000 0.000000 56.859995 46.271603 -2.685539
4.974648 13.838246 -24.900679 -169.851219 -65.894073 179.917394 0.000000 0.000000 0.000000 -3.649513 3.440806 -60.883607 15.274627 19.456025 76.062515 1.660300 -5.336644 -23.225158 0.330842 -3.696882 -10.225405 0.000000 0.000000 0.000000 17.675540 9.519448 -59.074461 -16.589262 -19.718738 79.982669 -2.484332 -0.326668 -29.981221 -0.116495 2.200389 -6.059811 -0.591428 0.250583 34.223775 -0.889057 -1.623307 10.699075 0.008986 -1.441339 -5.621461 7.767327 1.104053 -3.735950 8.187819 -6.281528 36.676736 0.896017 -1.728095 13.235476 0.000000 0.000000 0.000000 6.429125 1.967113 -30.105422 139.492711 -48.367560 101.182508 -7.085915 -10.422891 -32.104413 0.000000 0.000000 0.000000 -7.125000 0.000000 0.000000 -42.178277 56.807616 13.888417 0.000000 0.000000 0.000000 -1.600181 -3.255971 43.287167 -159.547181 -31.184056 -114.236024 33.037350 -27.073358 24.349106 0.000000 0.000000 0.000000 7.125000 0.000000 0.000000 55.621374 46.464511 -2.947688
4.951856 13.878386 -24.911139 -169.247277 -65.937527 178.784925 0.000000 0.000000 0.000000 -3.469251 3.638571 -59.839411 15.096383 19.413424 75.526936 1.656831 -5.456426 -23.186873 0.327466 -3.677975 -10.172402 0.000000 0.000000 0.000000 18.167108 9.229685 -57.917898 -16.370434 -19.681136 79.333427 -2.483778 -0.371933 -29.992627 -0.117990 2.214798 -6.099637 -0.750827 0.248081 34.098506 -0.967367 -1.657344 10.564492 0.023622 -1.447656 -5.721691 7.819683 1.104122 -3.751891 8.105855 -6.224671 36.581007 0.857766 -1.714853 13.188495 0.000000 0.000000 0.000000 6.388176 1.990396 -29.881429 139.462956 -48.384873 101.160248 -7.115151 -10.356246 -32.130634 0.000000 0.000000 0.000000 -7.125000 0.000000 0.000000 -42.230107 56.821402 13.924988 0.000000 0.000000 0.000000 -1.540078 -3.286173 43.395223 -159.583235 -31.141194 -114.254724 31.603721 -26.711731 24.885819 0.000000 0.000000 0.000000 7.125000 0.000000 0.000000 55.203181 47.090919 -4.102587
